<?xml version="1.0" encoding="utf-8"?>
<!-- Svg Vector Icons : http://www.onlinewebfonts.com/icon -->
<!DOCTYPE svg PUBLIC "-//W3C//DTD SVG 1.1//EN" "http://www.w3.org/Graphics/SVG/1.1/DTD/svg11.dtd">
<svg version="1.1" xmlns="http://www.w3.org/2000/svg" xmlns:xlink="http://www.w3.org/1999/xlink" x="0px" y="0px" viewBox="0 0 256 256" enable-background="new 0 0 256 256" xml:space="preserve">
<metadata> Svg Vector Icons : http://www.onlinewebfonts.com/icon </metadata>
<g><g><g><g><path fill="#000000" d="M246,145.7c0-25.3-12.9-47.7-32.4-60.8c2.6,9.3,4.1,19.2,4.1,29.3c0,45.4-27.7,84.5-67.1,101.2c7,2.2,14.5,3.4,22.2,3.4c6.2,0,12.3-0.9,18-2.3l34.8,22.9l-2.5-40.7C237.2,185.4,246,166.6,246,145.7z"/><path fill="#000000" d="M205.5,114.2c0-54-43.8-97.8-97.8-97.8c-54,0-97.8,43.8-97.8,97.8c0,27.9,11.8,53,30.5,70.9l-3.3,54.4l46.4-30.7c7.7,1.9,15.7,3.1,24.1,3.1C161.8,212,205.5,168.2,205.5,114.2z M49.9,99.2c0-9.7,7.8-17.5,17.6-17.5c9.7,0,17.6,7.9,17.6,17.5c0,9.7-7.9,17.6-17.6,17.6C57.7,116.8,49.9,108.9,49.9,99.2z M107.8,180.2c-27,0-48.9-21.4-48.9-33.7c0-12.4,21.9,0.5,48.9,0.5s48.9-12.9,48.9-0.5C156.7,158.8,134.8,180.2,107.8,180.2z M148.1,116.8c-9.7,0-17.6-7.9-17.6-17.6c0-9.7,7.9-17.5,17.6-17.5s17.5,7.9,17.5,17.5C165.7,108.9,157.8,116.8,148.1,116.8z"/></g></g><g></g><g></g><g></g><g></g><g></g><g></g><g></g><g></g><g></g><g></g><g></g><g></g><g></g><g></g><g></g></g></g>
</svg>